Coordinates
version=1
nRows=39
nColumns=18
inDegrees=yes

Units are S.I. units (second, meters, Newtons, ...)
If the header above contains a line with 'inDegrees', this indicates whether rotational values are in degrees (yes) or radians (no).

endheader
time	ground_thorax_rot_x	ground_thorax_rot_y	ground_thorax_rot_z	ground_thorax_tx	ground_thorax_ty	ground_thorax_tz	clav_prot	clav_elev	scapula_abduction	scapula_elevation	scapula_upward_rot	scapula_winging	plane_elv	shoulder_elv	axial_rot	elbow_flexion	pro_sup
      1.24000000	      0.44683419	     -4.93485381	    -11.86174801	      0.00000000	      0.00000000	      0.00000000	    -21.85357230	     14.57235697	     -7.41603698	      6.07436150	     29.73171777	     -1.05085126	    -11.25192645	      1.72979642	     43.73393879	      0.00000000	     34.32000000
      1.25000000	      0.46163125	     -4.81770149	    -11.78127398	      0.00000000	      0.00000000	      0.00000000	    -21.85700803	     14.66157151	     -7.25105888	      6.08059262	     30.00320535	     -1.12684394	    -18.34413589	      0.93256137	     53.24071267	      0.00000000	     34.32000000
      1.26000000	      0.47649432	     -4.76416677	    -11.80880027	      0.00000000	      0.00000000	      0.00000000	    -21.94489172	     14.80619027	     -7.51796246	      6.18589068	     29.98503861	     -1.10046606	    -11.95349711	      1.44457555	     46.18165207	      0.00000000	     34.32000000
      1.27000000	      0.43425841	     -4.71325410	    -11.69763824	      0.00000000	      0.00000000	      0.00000000	    -22.01248310	     14.94750112	     -7.50166727	      6.22606419	     30.25995239	     -1.17103066	    -14.48733838	      0.71834215	     50.59693287	      0.00000000	     34.32000000
      1.28000000	      0.48696880	     -4.71311641	    -11.79473683	      0.00000000	      0.00000000	      0.00000000	    -22.26162484	     15.08267177	     -7.79393526	      6.24334715	     30.56867223	     -1.26172336	    -10.66643640	      0.66006983	     48.09356575	      0.00000000	     34.32000000
      1.29000000	      0.37063705	     -4.62097441	    -11.74845536	      0.00000000	      0.00000000	      0.00000000	    -22.38738813	     15.19866715	     -8.07941221	      6.31525345	     30.59455482	     -1.25752652	     -5.74612082	      0.73450117	     43.26471627	      0.00000000	     34.32000000
      1.30000000	      0.61412720	     -4.56308914	    -11.80308759	      0.00000000	      0.00000000	      0.00000000	    -22.57678880	     15.61789017	     -8.39234553	      6.53448782	     30.95465091	     -1.31620681	      0.75716286	      1.28630146	     34.05711666	      0.00000000	     34.32000000
      1.31000000	      0.69274958	     -4.21148146	    -11.90102176	      0.00000000	      0.00000000	      0.00000000	    -22.91913464	     15.77715352	     -9.12730670	      6.62712029	     30.96453316	     -1.31580589	      7.47318983	      1.92341023	     25.84875610	      0.00000000	     34.32000000
      1.32000000	      0.37512473	     -4.18787442	    -11.76707575	      0.00000000	      0.00000000	      0.00000000	    -22.61861987	     15.45956711	     -8.54044559	      6.45804773	     30.75492272	     -1.28018142	     -4.00326422	      0.57639890	     41.36866420	      0.00000000	     34.32000000
      1.33000000	      0.43014146	     -4.11938307	    -11.75651155	      0.00000000	      0.00000000	      0.00000000	    -22.70886020	     15.45927979	     -8.63243947	      6.43227553	     30.84639003	     -1.31644737	     -8.13958866	      0.23538214	     45.58931086	      0.00000000	     34.32000000
      1.34000000	      0.49565796	     -4.17224379	    -11.87945217	      0.00000000	      0.00000000	      0.00000000	    -22.82338215	     15.41539187	     -8.91495208	      6.41673712	     30.73325176	     -1.29448345	     -0.08587746	      1.13935593	     35.63339405	      0.00000000	     34.32000000
      1.35000000	      0.45167765	     -4.26845459	    -11.76339424	      0.00000000	      0.00000000	      0.00000000	    -22.64751377	     15.35652701	     -8.54913859	      6.38510160	     30.73232723	     -1.29230284	     -9.17338286	      0.34425342	     45.97623620	      0.00000000	     34.32000000
      1.36000000	      0.44318232	     -4.32126886	    -11.78128340	      0.00000000	      0.00000000	      0.00000000	    -22.60261715	     15.32050268	     -8.45948261	      6.36575675	     30.71250702	     -1.28876623	     -9.37748201	      0.38590409	     45.63878031	      0.00000000	     34.32000000
      1.37000000	      0.51681581	     -4.22456631	    -11.96899284	      0.00000000	      0.00000000	      0.00000000	    -22.84789072	     15.27887997	     -8.97442615	      6.33992194	     30.61566403	     -1.28016842	      0.70162691	      1.57394838	     31.91079285	      0.00000000	     34.32000000
      1.38000000	      0.87895865	     -4.26140393	    -11.88381841	      0.00000000	      0.00000000	      0.00000000	    -22.91581297	     15.71624185	     -9.16178434	      6.60272370	     30.87058871	     -1.29485764	      3.71667745	      1.93522999	     28.20690201	      0.00000000	     34.32000000
      1.39000000	      0.83853057	     -4.27111097	    -11.90369580	      0.00000000	      0.00000000	      0.00000000	    -22.89110171	     15.65931463	     -9.10200682	      6.56813600	     30.84394914	     -1.29426299	      3.68221497	      1.83831339	     28.23498924	      0.00000000	     34.32000000
      1.40000000	      0.41018168	     -4.34017065	    -11.74310329	      0.00000000	      0.00000000	      0.00000000	    -22.51170626	     15.31334990	     -8.27165927	      6.36303987	     30.72816009	     -1.28908298	    -10.98700041	      0.32704508	     46.13822315	      0.00000000	     34.32000000
      1.41000000	      0.42581001	     -4.30541011	    -11.73656708	      0.00000000	      0.00000000	      0.00000000	    -22.50892382	     15.30563035	     -8.25683453	      6.35634214	     30.73351030	     -1.29246428	    -10.98952087	      0.34588322	     46.13623965	      0.00000000	     34.32000000
      1.42000000	      0.40560649	     -4.34667925	    -11.73796928	      0.00000000	      0.00000000	      0.00000000	    -22.42744365	     15.24183976	     -8.02340258	      6.30403321	     30.78268176	     -1.31443553	    -14.96178748	      0.15415364	     49.43089268	      0.00000000	     34.32000000
      1.43000000	      0.41273639	     -4.34600762	    -11.72767167	      0.00000000	      0.00000000	      0.00000000	    -22.41055161	     15.19387010	     -8.04116551	      6.29001050	     30.68848052	     -1.29061181	    -12.28947010	      0.54063225	     46.15696017	      0.00000000	     34.32000000
      1.44000000	      0.39521897	     -4.27261233	    -11.77407877	      0.00000000	      0.00000000	      0.00000000	    -22.50778060	     15.10425683	     -8.28277948	      6.24711785	     30.55215153	     -1.26593011	     -9.05749062	      0.76025286	     43.82982272	      0.00000000	     34.32000000
      1.45000000	      0.43085804	     -4.28310504	    -11.73894393	      0.00000000	      0.00000000	      0.00000000	    -22.53873320	     15.13395696	     -8.30185884	      6.25230167	     30.62041443	     -1.28536637	    -10.46501594	      0.54105134	     45.30370905	      0.00000000	     34.32000000
      1.46000000	      0.46399873	     -4.37447240	    -11.73697217	      0.00000000	      0.00000000	      0.00000000	    -22.46555350	     15.17653350	     -8.17712317	      6.28483768	     30.63675380	     -1.27955522	    -10.42752076	      0.61705001	     44.60926954	      0.00000000	     34.32000000
      1.47000000	      0.65849489	     -4.43275231	    -11.81895793	      0.00000000	      0.00000000	      0.00000000	    -22.54977125	     15.35648345	     -8.51453231	      6.42956956	     30.55543557	     -1.22751711	      0.92268423	      1.91100222	     30.19021428	      0.00000000	     34.32000000
      1.48000000	      0.40295856	     -4.40306844	    -11.71514582	      0.00000000	      0.00000000	      0.00000000	    -22.42561170	     15.17341302	     -8.14863611	      6.29753831	     30.57901581	     -1.25875120	     -9.97544193	      0.55766971	     44.27467851	      0.00000000	     34.32000000
      1.49000000	      0.36688593	     -4.35543304	    -11.80664555	      0.00000000	      0.00000000	      0.00000000	    -22.51612435	     15.09992246	     -8.31924041	      6.24938648	     30.52411620	     -1.25794384	     -7.48527581	      0.52906866	     42.44406882	      0.00000000	     34.32000000
      1.50000000	      0.66568368	     -4.37159775	    -11.77652297	      0.00000000	      0.00000000	      0.00000000	    -22.65264586	     15.38788551	     -8.68611471	      6.43544720	     30.60444506	     -1.24468985	      1.60018865	      1.34770652	     32.52483281	      0.00000000	     34.32000000
      1.51000000	      0.44514099	     -4.32456888	    -11.74709177	      0.00000000	      0.00000000	      0.00000000	    -22.57606878	     15.15081841	     -8.48564819	      6.28893117	     30.49701665	     -1.24404314	     -3.55471792	      0.39222407	     40.36673738	      0.00000000	     34.32000000
      1.52000000	      0.61008760	     -4.19335285	    -11.83772560	      0.00000000	      0.00000000	      0.00000000	    -22.89150621	     15.28352318	     -9.21278545	      6.38006959	     30.43219604	     -1.22186265	      8.33279829	      1.70696546	     24.20459459	      0.00000000	     34.32000000
      1.53000000	      0.60669641	     -4.14625977	    -11.99004969	      0.00000000	      0.00000000	      0.00000000	    -23.06000220	     15.18818505	     -9.47720173	      6.30089607	     30.42143827	     -1.24624307	     11.64146497	      2.00500201	     20.57374693	      0.00000000	     34.32000000
      1.54000000	      0.63520844	     -4.13866459	    -12.01124982	      0.00000000	      0.00000000	      0.00000000	    -23.03543763	     15.18837868	     -9.44847169	      6.30725013	     30.40085458	     -1.23794299	     11.62944475	      1.99048120	     20.60189373	      0.00000000	     34.32000000
      1.55000000	      0.38932074	     -4.41964033	    -11.69730655	      0.00000000	      0.00000000	      0.00000000	    -22.49004623	     15.06769685	     -8.42245696	      6.27182921	     30.31851681	     -1.19359776	     -2.53862867	      0.57849336	     38.76214598	      0.00000000	     34.32000000
      1.56000000	      0.44242969	     -4.45662697	    -11.73752039	      0.00000000	      0.00000000	      0.00000000	    -22.53714884	     15.02167069	     -8.47903123	      6.23401958	     30.32251710	     -1.20527062	     -1.50595819	      0.67315024	     38.14212789	      0.00000000	     34.32000000
      1.57000000	      0.50954666	     -4.37642110	    -11.88539617	      0.00000000	      0.00000000	      0.00000000	    -22.72419089	     14.97181281	     -8.90426225	      6.21271191	     30.19554338	     -1.18282523	      6.13265600	      1.82200190	     26.45053547	      0.00000000	     34.32000000
      1.58000000	      0.43912081	     -4.47340722	    -11.77574906	      0.00000000	      0.00000000	      0.00000000	    -22.47966263	     14.91457502	     -8.54104363	      6.22018529	     30.04002602	     -1.12585448	      1.12828062	      1.25182516	     35.19276277	      0.00000000	     34.32000000
      1.59000000	      0.42340897	     -4.46107702	    -11.74148089	      0.00000000	      0.00000000	      0.00000000	    -22.45709027	     14.97792416	     -8.40729849	      6.23424473	     30.19660206	     -1.16613503	     -1.32919720	      0.97273365	     36.60058076	      0.00000000	     34.32000000
      1.60000000	      0.64895608	     -4.49473129	    -11.86167608	      0.00000000	      0.00000000	      0.00000000	    -22.60426944	     15.18030839	     -8.71790402	      6.35061570	     30.30424448	     -1.17709194	      6.80885001	      1.89477958	     25.94231530	      0.00000000	     34.32000000
      1.61000000	      0.41995739	     -4.53020185	    -11.69650573	      0.00000000	      0.00000000	      0.00000000	    -22.36449687	     14.98262692	     -8.23319315	      6.24273419	     30.20072052	     -1.16173851	     -2.48330387	      0.87145009	     37.20905442	      0.00000000	     34.32000000
      1.62000000	      0.41194362	     -4.65234143	    -11.72852711	      0.00000000	      0.00000000	      0.00000000	    -22.27782908	     14.89829797	     -8.03971686	      6.19136045	     30.17624267	     -1.16297796	     -3.60003960	      0.80035077	     38.70724563	      0.00000000	     34.32000000
